<svg version="1.2" xmlns="http://www.w3.org/2000/svg" viewBox="0 0 1512 848" width="1512" height="848">
	<title>about-bg-svg</title>
	<style>
		.s0 { opacity: .1;fill: #b6a7d7 } 
		.s1 { opacity: 0;fill: #b6a7d7 } 
		.s2 { opacity: .2;fill: #b6a7d7 } 
		.s3 { fill: #f6fcff } 
	</style>
	<path id="Layer" class="s0" d="m471.6 369.8c-28 222.6 37.7 398.3 153.3 478.6l-194.8 4.9c-51.8-89.5 12.5-383.5 41.5-483.5zm795.5-370.7c-340.6 0-588.4 160.6-669.8 240.9 71.2-139.6 139.3-218.8 164.5-240.9z"/>
	<path id="Layer" class="s1" d="m453.5 468.4c0 224.4 167.6 347.5 251.4 380.9h-273.9c-55.1-73.2-8-284.4 22.5-380.9z"/>
	<path id="Layer" fill-rule="evenodd" class="s2" d="m0 0v848h476.7c-11.3-53-17.3-107.8-17.3-164 0-288.4 156.5-541.4 391.9-684zm1513 0v848h-1036.3c78.4 366.9 414.5 642.7 817.3 642.7 460.9 0 834.5-361.2 834.5-806.7 0-445.5-373.6-806.7-834.5-806.7-162.6 0-314.3 45-442.6 122.7z"/>
	<path id="Layer" fill-rule="evenodd" class="s3" d="m0 0v848h499.8c-34.3-85.3-53-177.7-53-274.2 0-227.1 103.7-431.5 269.1-573.8zm1513 0v848h-1013.3c118.2 294.5 421.3 504 776.5 504 458 0 829.4-348.4 829.4-778.2 0-429.8-371.4-778.2-829.4-778.2-216 0-412.8 77.4-560.3 204.4z"/>
</svg>