<svg width="24" height="24" viewBox="0 0 24 24" fill="none" xmlns="http://www.w3.org/2000/svg">
<path d="M16 2H8C4 2 2 4 2 8V21C2 21.55 2.45 22 3 22H16C20 22 22 20 22 16V8C22 4 20 2 16 2Z" stroke="white" stroke-linecap="round" stroke-linejoin="round"/>
<path d="M12.91 7.84015L7.72 13.0302C7.52 13.2302 7.33 13.6202 7.29 13.9002L7.01 15.8802C6.91 16.6002 7.41 17.1002 8.13 17.0002L10.11 16.7202C10.39 16.6802 10.78 16.4902 10.98 16.2902L16.17 11.1002C17.06 10.2102 17.49 9.17015 16.17 7.85015C14.85 6.52015 13.81 6.94015 12.91 7.84015Z" stroke="white" stroke-miterlimit="10" stroke-linecap="round" stroke-linejoin="round"/>
<path d="M12.17 8.58008C12.3871 9.35526 12.8002 10.0615 13.3694 10.6307C13.9386 11.1999 14.6448 11.613 15.42 11.8301" stroke="white" stroke-miterlimit="10" stroke-linecap="round" stroke-linejoin="round"/>
</svg>
