<svg width="43" height="43" viewBox="0 0 43 43" fill="none" xmlns="http://www.w3.org/2000/svg">
<path d="M21.2999 42.5C15.1648 42.5 10.131 41.7184 6.19856 40.1552C2.26614 38.592 0.299927 36.5803 0.299927 34.1202V8.375C0.299927 6.19424 2.34692 4.33655 6.44092 2.80193C10.5349 1.26731 15.4879 0.5 21.2999 0.5C27.1119 0.5 32.0649 1.26731 36.1589 2.80193C40.2529 4.33655 42.2999 6.19424 42.2999 8.375V34.1202C42.2999 36.5803 40.3337 38.592 36.4013 40.1552C32.4688 41.7184 27.435 42.5 21.2999 42.5ZM21.2999 13.3372C25.0591 13.3372 28.8485 12.8131 32.6682 11.7648C36.4879 10.7165 38.773 9.57475 39.5235 8.33969C38.8067 7.03725 36.5578 5.84253 32.7768 4.75552C28.9958 3.66851 25.1701 3.125 21.2999 3.125C17.4869 3.125 13.6664 3.64917 9.83826 4.6975C6.01013 5.7458 3.72251 6.89255 2.97539 8.13777C3.68887 9.45027 5.94285 10.645 9.73733 11.7219C13.5318 12.7988 17.386 13.3372 21.2999 13.3372ZM21.2999 26.5481C23.1038 26.5481 24.8757 26.4606 26.6156 26.2856C28.3554 26.1106 30.0188 25.8506 31.6055 25.5056C33.1924 25.1607 34.6664 24.7308 36.0277 24.2159C37.389 23.701 38.6047 23.1204 39.6749 22.4743V11.7219C38.6047 12.3681 37.389 12.9486 36.0277 13.4635C34.6664 13.9784 33.1924 14.4083 31.6055 14.7533C30.0188 15.0982 28.3554 15.3582 26.6156 15.5332C24.8757 15.7082 23.1038 15.7957 21.2999 15.7957C19.4288 15.7957 17.6098 15.6998 15.8429 15.508C14.0761 15.3161 12.4078 15.0477 10.8378 14.7028C9.26782 14.3578 7.81314 13.9363 6.47373 13.4382C5.13432 12.9402 3.95139 12.3681 2.92493 11.7219V22.4743C3.95139 23.1204 5.13432 23.6925 6.47373 24.1906C7.81314 24.6887 9.26782 25.1102 10.8378 25.4552C12.4078 25.8001 14.0761 26.0685 15.8429 26.2603C17.6098 26.4522 19.4288 26.5481 21.2999 26.5481ZM21.2999 39.875C23.548 39.875 25.6859 39.7471 27.7135 39.4914C29.7412 39.2356 31.5627 38.873 33.1781 38.4035C34.7934 37.934 36.1665 37.3737 37.2973 36.7225C38.428 36.0713 39.2206 35.3671 39.6749 34.6098V25.0993C38.6047 25.7455 37.389 26.326 36.0277 26.8409C34.6664 27.3558 33.1924 27.7857 31.6055 28.1307C30.0188 28.4756 28.3554 28.7356 26.6156 28.9106C24.8757 29.0856 23.1038 29.1731 21.2999 29.1731C19.4288 29.1731 17.6098 29.0772 15.8429 28.8854C14.0761 28.6935 12.4078 28.4251 10.8378 28.0802C9.26782 27.7353 7.81314 27.3137 6.47373 26.8156C5.13432 26.3176 3.95139 25.7455 2.92493 25.0993V34.625C3.37927 35.4159 4.16929 36.126 5.29497 36.7553C6.42071 37.3846 7.79126 37.934 9.40664 38.4035C11.022 38.873 12.8461 39.2356 14.8788 39.4914C16.9115 39.7471 19.0518 39.875 21.2999 39.875Z" fill="#1C1B1F"/>
</svg>
