<svg width="48" height="54" viewBox="0 0 48 54" fill="none" xmlns="http://www.w3.org/2000/svg">
<path d="M4.74036 47.5C3.56585 47.5 2.56548 47.0869 1.73926 46.2607C0.913088 45.4345 0.5 44.4342 0.5 43.2596V9.74036C0.5 8.56585 0.913088 7.56548 1.73926 6.73926C2.56548 5.91309 3.56585 5.5 4.74036 5.5H17.0779C16.8389 4.16055 17.1595 2.95069 18.0395 1.87041C18.9196 0.790139 20.0731 0.25 21.5 0.25C22.9606 0.25 24.1309 0.790139 25.0109 1.87041C25.891 2.95069 26.1947 4.16055 25.9221 5.5H38.2596C39.4342 5.5 40.4345 5.91309 41.2607 6.73926C42.0869 7.56548 42.5 8.56585 42.5 9.74036V25.3591C42.039 25.201 41.5981 25.0722 41.1774 24.973C40.7567 24.8737 40.3226 24.7752 39.875 24.6777V9.74036C39.875 9.33655 39.7067 8.96636 39.3702 8.62979C39.0336 8.29326 38.6635 8.125 38.2596 8.125H4.74036C4.33655 8.125 3.96636 8.29326 3.62979 8.62979C3.29326 8.96636 3.125 9.33655 3.125 9.74036V43.2596C3.125 43.6635 3.29326 44.0336 3.62979 44.3702C3.96636 44.7067 4.33655 44.875 4.74036 44.875H19.612C19.676 45.3664 19.7576 45.8224 19.8569 46.243C19.9562 46.6637 20.0849 47.0827 20.243 47.5H4.74036ZM3.125 44.875V8.125V24.6777V24.4808V44.875ZM9.6875 37.7067H20.0815C20.1791 37.2592 20.3112 36.825 20.4778 36.4043C20.6444 35.9837 20.8185 35.5428 21.0003 35.0817H9.6875V37.7067ZM9.6875 27.8125H26.962C27.8236 27.2067 28.6725 26.6935 29.5087 26.2728C30.3451 25.8522 31.2428 25.5223 32.2019 25.2834V25.1875H9.6875V27.8125ZM9.6875 17.9183H33.3125V15.2933H9.6875V17.9183ZM21.5 6.66104C22.0688 6.66104 22.5391 6.4751 22.9109 6.10323C23.2828 5.73135 23.4688 5.26104 23.4688 4.69229C23.4688 4.12354 23.2828 3.65323 22.9109 3.28135C22.5391 2.90948 22.0688 2.72354 21.5 2.72354C20.9312 2.72354 20.4609 2.90948 20.0891 3.28135C19.7172 3.65323 19.5312 4.12354 19.5312 4.69229C19.5312 5.26104 19.7172 5.73135 20.0891 6.10323C20.4609 6.4751 20.9312 6.66104 21.5 6.66104ZM37.25 53.0529C34.3255 53.0529 31.8444 52.0341 29.8066 49.9963C27.7689 47.9586 26.75 45.4774 26.75 42.5529C26.75 39.6283 27.7689 37.1472 29.8066 35.1095C31.8444 33.0717 34.3255 32.0529 37.25 32.0529C40.1745 32.0529 42.6556 33.0717 44.6934 35.1095C46.7311 37.1472 47.75 39.6283 47.75 42.5529C47.75 45.4774 46.7311 47.9586 44.6934 49.9963C42.6556 52.0341 40.1745 53.0529 37.25 53.0529ZM36.2404 50.125H38.2596V43.5625H44.8221V41.5433H38.2596V34.9808H36.2404V41.5433H29.6779V43.5625H36.2404V50.125Z" fill="#1C1B1F"/>
</svg>
