<svg width="48" height="55" viewBox="0 0 48 55" fill="none" xmlns="http://www.w3.org/2000/svg">
<path d="M24.1 54.125C20.8389 54.125 17.7713 53.5033 14.8973 52.2597C12.0233 51.0162 9.5228 49.331 7.39585 47.2041C5.26895 45.0772 3.58374 42.5767 2.34024 39.7027C1.09673 36.8286 0.474976 33.7611 0.474976 30.5C0.474976 26.2865 1.4989 22.3802 3.54675 18.7809C5.59456 15.1816 8.42906 12.3168 12.0502 10.1865C12.1276 10.6139 12.1983 11.0439 12.2622 11.4763C12.3262 11.9088 12.4271 12.3909 12.5651 12.9226C9.5834 14.8812 7.26043 17.4044 5.59622 20.4922C3.93206 23.5799 3.09998 26.9159 3.09998 30.5C3.09998 36.3625 5.13435 41.3281 9.2031 45.3969C13.2719 49.4656 18.2375 51.5 24.1 51.5C29.9625 51.5 34.9281 49.4656 38.9969 45.3969C43.0656 41.3281 45.1 36.3625 45.1 30.5C45.1 26.9159 44.2595 23.569 42.5785 20.4594C40.8975 17.3498 38.5442 14.8156 35.5187 12.857C35.6567 12.3589 35.7661 11.902 35.8469 11.4864C35.9276 11.0708 36.0117 10.6375 36.0992 10.1865C39.7204 12.3168 42.5633 15.1791 44.628 18.7733C46.6926 22.3675 47.725 26.2764 47.725 30.5C47.725 33.7611 47.1032 36.8286 45.8597 39.7027C44.6162 42.5767 42.931 45.0772 40.8041 47.2041C38.6771 49.331 36.1767 51.0162 33.3026 52.2597C30.4286 53.5033 27.3611 54.125 24.1 54.125ZM24.1 43.625C20.4654 43.625 17.3692 42.3462 14.8115 39.7885C12.2538 37.2308 10.975 34.1346 10.975 30.5C10.975 28.6692 11.3309 26.9327 12.0426 25.2904C12.7544 23.6481 13.7682 22.2178 15.0841 20.9995C15.2355 21.4202 15.3836 21.8468 15.5284 22.2792C15.673 22.7116 15.8464 23.2089 16.0483 23.7709C15.2541 24.7098 14.6475 25.7582 14.2285 26.9159C13.8095 28.0736 13.6 29.2683 13.6 30.5C13.6 33.3875 14.6281 35.8594 16.6844 37.9156C18.7406 39.9719 21.2125 41 24.1 41C26.9875 41 29.4594 39.9719 31.5156 37.9156C33.5718 35.8594 34.6 33.3875 34.6 30.5C34.6 29.2346 34.3821 28.0399 33.9462 26.9159C33.5104 25.7918 32.8954 24.7435 32.1012 23.7709C32.2493 23.3603 32.3056 23.2198 32.2703 23.3494C32.2349 23.479 32.4949 22.6788 33.0502 20.949C34.3998 22.1673 35.4329 23.606 36.1498 25.2652C36.8666 26.9243 37.225 28.6692 37.225 30.5C37.225 34.1346 35.9461 37.2308 33.3885 39.7885C30.8308 42.3462 27.7346 43.625 24.1 43.625ZM22.4846 20C20.8659 15.1336 19.8554 11.8987 19.4532 10.295C19.0511 8.69148 18.85 7.11396 18.85 5.5625C18.85 4.09517 19.3582 2.85335 20.3745 1.83704C21.3908 0.820679 22.6326 0.3125 24.1 0.3125C25.5673 0.3125 26.8091 0.820679 27.8254 1.83704C28.8418 2.85335 29.35 4.09517 29.35 5.5625C29.35 7.11396 29.1489 8.69148 28.7467 10.295C28.3446 11.8987 27.3341 15.1336 25.7153 20H22.4846ZM24.1 34.4375C22.9928 34.4375 22.0597 34.0581 21.3008 33.2992C20.5419 32.5403 20.1625 31.6072 20.1625 30.5C20.1625 29.3928 20.5419 28.4597 21.3008 27.7008C22.0597 26.9419 22.9928 26.5625 24.1 26.5625C25.2072 26.5625 26.1403 26.9419 26.8991 27.7008C27.658 28.4597 28.0375 29.3928 28.0375 30.5C28.0375 31.6072 27.658 32.5403 26.8991 33.2992C26.1403 34.0581 25.2072 34.4375 24.1 34.4375Z" fill="#1C1B1F"/>
</svg>
