<svg width="51" height="47" viewBox="0 0 51 47" fill="none" xmlns="http://www.w3.org/2000/svg">
<path d="M25.7 46.1249C22.7889 46.1249 20.0604 45.5772 17.5145 44.4818C14.9686 43.3864 12.7441 41.8871 10.841 39.9839C8.93787 38.0808 7.43858 35.8563 6.34312 33.3104C5.24771 30.7645 4.7 28.036 4.7 25.1249C4.7 22.2138 5.24771 19.4854 6.34312 16.9395C7.43858 14.3936 8.93787 12.169 10.841 10.2659C12.7441 8.36279 14.9686 6.8635 17.5145 5.76805C20.0604 4.67263 22.7889 4.12493 25.7 4.12493C28.6111 4.12493 31.3396 4.67263 33.8855 5.76805C36.4314 6.8635 38.6559 8.36279 40.559 10.2659C42.4621 12.169 43.9614 14.3936 45.0569 16.9395C46.1523 19.4854 46.7 22.2138 46.7 25.1249C46.7 28.036 46.1523 30.7645 45.0569 33.3104C43.9614 35.8563 42.4621 38.0808 40.559 39.9839C38.6559 41.8871 36.4314 43.3864 33.8855 44.4818C31.3396 45.5772 28.6111 46.1249 25.7 46.1249ZM33.9586 35.2413L35.8164 33.3836L27.0125 24.5797V11.9999H24.3875V25.6701L33.9586 35.2413ZM9.70771 -0.00439453L11.5654 1.85332L2.42839 10.9903L0.570679 9.13264L9.70771 -0.00439453ZM41.6923 -0.00439453L50.8293 9.13264L48.9716 10.9903L39.8346 1.85332L41.6923 -0.00439453ZM25.7 43.4999C30.7851 43.4999 35.1189 41.7087 38.7013 38.1262C42.2838 34.5438 44.075 30.21 44.075 25.1249C44.075 20.0398 42.2838 15.7061 38.7013 12.1236C35.1189 8.54116 30.7851 6.74993 25.7 6.74993C20.6149 6.74993 16.2811 8.54116 12.6987 12.1236C9.11624 15.7061 7.325 20.0398 7.325 25.1249C7.325 30.21 9.11624 34.5438 12.6987 38.1262C16.2811 41.7087 20.6149 43.4999 25.7 43.4999Z" fill="#1C1B1F"/>
</svg>
