<svg width="74" height="74" viewBox="0 0 74 74" fill="none" xmlns="http://www.w3.org/2000/svg">
<g clip-path="url(#clip0_854_51)">
<path d="M26.8413 31.6162H15.5498V22.583C15.5498 17.6006 19.6006 13.5498 24.583 13.5498H25.7121C26.1572 13.5509 26.5982 13.464 27.0097 13.2941C27.4212 13.1243 27.795 12.8748 28.1098 12.56C28.4246 12.2452 28.6741 11.8714 28.8439 11.4599C29.0138 11.0484 29.1007 10.6074 29.0996 10.1623V3.38738C29.1007 2.94223 29.0138 2.50124 28.8439 2.08977C28.6741 1.67829 28.4246 1.30443 28.1098 0.989655C27.795 0.674881 27.4212 0.425404 27.0097 0.255539C26.5982 0.0856781 26.1572 -0.00121307 25.7121 -0.000144958H24.583C12.1059 -0.000144958 2 10.1058 2 22.5829V56.4575C2 60.1978 5.03458 63.2324 8.7749 63.2324H26.8413C30.5816 63.2324 33.6162 60.1978 33.6162 56.4575V38.3911C33.6162 34.6508 30.5816 31.6162 26.8413 31.6162ZM67.4907 31.6162L56.1992 31.6162V22.583C56.1992 17.6006 60.25 13.5498 65.2324 13.5498H66.3615C66.8067 13.5509 67.2476 13.464 67.6591 13.2941C68.0706 13.1243 68.4444 12.8748 68.7592 12.56C69.074 12.2452 69.3235 11.8714 69.4933 11.4599C69.6632 11.0484 69.7501 10.6074 69.749 10.1623V3.38738C69.7501 2.94223 69.6632 2.50124 69.4933 2.08977C69.3235 1.67829 69.074 1.30443 68.7592 0.989655C68.4444 0.674881 68.0706 0.425404 67.6591 0.255539C67.2476 0.0856781 66.8067 -0.00121307 66.3615 -0.000144958H65.2324C52.7553 -0.000144958 42.6494 10.1058 42.6494 22.5829V56.4575C42.6494 60.1978 45.684 63.2324 49.4243 63.2324H67.4907C71.231 63.2324 74.2656 60.1978 74.2656 56.4575V38.3911C74.2656 34.6508 71.231 31.6162 67.4907 31.6162Z" fill="#195C86"/>
</g>
<defs>
<clipPath id="clip0_854_51">
<rect width="74" height="74" fill="white" transform="matrix(-1 0 0 -1 74 74)"/>
</clipPath>
</defs>
</svg>
