<svg width="22" height="16" viewBox="0 0 22 16" fill="none" xmlns="http://www.w3.org/2000/svg">
<path fill-rule="evenodd" clip-rule="evenodd" d="M21.065 1.5825C20.4683 0.521 19.8206 0.32575 18.502 0.2515C17.1847 0.162125 13.8724 0.125 11.0027 0.125C8.12762 0.125 4.81387 0.162125 3.498 0.250125C2.18212 0.32575 1.53312 0.519625 0.930875 1.5825C0.31625 2.64262 0 4.46862 0 7.68337V7.69438C0 10.8954 0.31625 12.7351 0.930875 13.7843C1.53312 14.8457 2.18075 15.0382 3.49662 15.1276C4.81388 15.2046 8.12762 15.25 11.0027 15.25C13.8724 15.25 17.1847 15.2046 18.5034 15.129C19.822 15.0396 20.4696 14.8471 21.0664 13.7856C21.6865 12.7365 22 10.8967 22 7.69575V7.68475C22 4.46863 21.6865 2.64262 21.065 1.5825ZM8.25 11.8125V3.5625L15.125 7.6875L8.25 11.8125Z" fill="white"/>
</svg>
